<svg xmlns="http://www.w3.org/2000/svg" width="18" height="18" viewBox="0 0 18 18"><g><rect class="nc-transparent-rect" x="0" y="0" width="18" height="18" rx="0" ry="0" fill="none" stroke="none"></rect><g class="nc-icon-wrapper" fill="#000000"><path d="M9.78,15.374c-.42,.083-.851,.126-1.28,.126-.589,0-1.348-1.05-1.817-2.849,.576,.061,1.159,.097,1.739,.099h.003c.413,0,.748-.333,.75-.747,.002-.415-.333-.751-.747-.753-.733-.003-1.416-.052-2.042-.135-.086-.647-.135-1.354-.135-2.115s.05-1.467,.135-2.115c.647-.085,1.354-.135,2.115-.135s1.466,.05,2.113,.135c.059,.45,.104,.925,.124,1.439,.017,.414,.386,.751,.779,.719,.414-.017,.735-.366,.719-.78-.015-.371-.044-.728-.078-1.079,1.796,.469,2.843,1.227,2.843,1.816,0,.237-.013,.471-.037,.701-.044,.412,.255,.781,.667,.825,.409,.046,.781-.254,.825-.666,.03-.283,.045-.569,.045-.86,0-4.411-3.589-8-8-8S.5,4.589,.5,9s3.589,8,8,8c.527,0,1.057-.052,1.573-.154,.406-.081,.67-.476,.589-.882-.08-.407-.477-.669-.882-.59Zm-4.931-4.559c-1.799-.47-2.849-1.229-2.849-1.815,0-.589,1.049-1.349,2.849-1.817-.063,.601-.099,1.211-.099,1.817s.036,1.215,.099,1.815Zm3.651-5.565c-.606,0-1.216,.036-1.817,.099,.469-1.8,1.228-2.849,1.817-2.849,.564,0,1.335,1.007,1.813,2.849-.6-.063-1.209-.099-1.813-.099Zm5.98,1.205c-.728-.37-1.609-.655-2.56-.856-.204-.993-.493-1.864-.855-2.569,1.531,.66,2.76,1.892,3.415,3.425ZM5.955,3.02c-.372,.732-.658,1.618-.859,2.575-.958,.201-1.844,.487-2.576,.859,.658-1.54,1.894-2.776,3.434-3.434ZM2.517,11.539c.733,.373,1.62,.661,2.578,.863,.201,.958,.487,1.845,.859,2.578-1.542-.659-2.78-1.898-3.437-3.441Z" fill="#000000"></path><path d="M17.324,12.233l-5.94-2.17h0c-.379-.14-.795-.047-1.082,.24-.286,.287-.377,.702-.237,1.081l2.17,5.941c.149,.406,.536,.675,.967,.675h.022c.439-.01,.825-.297,.958-.716l.753-2.351,2.352-.752c.419-.134,.706-.52,.715-.96s-.264-.837-.676-.988Z" data-color="color-2"></path></g></g></svg>