<svg width="40" height="40" viewBox="0 0 40 40" fill="none" xmlns="http://www.w3.org/2000/svg">
<g clip-path="url(#clip0_81_2)">
<path d="M30 5C30 2.23858 25.5228 0 20 0C14.4772 0 10 2.23858 10 5V35C10 37.7614 14.4772 40 20 40C25.5228 40 30 37.7614 30 35V5Z" fill="black"/>
<path d="M35 10H5C2.23858 10 0 14.4772 0 20C0 25.5228 2.23858 30 5 30H35C37.7614 30 40 25.5228 40 20C40 14.4772 37.7614 10 35 10Z" fill="black"/>
<path d="M14.5 6.84999C15.5218 6.84999 16.35 6.02172 16.35 4.99999C16.35 3.97827 15.5218 3.14999 14.5 3.14999C13.4783 3.14999 12.65 3.97827 12.65 4.99999C12.65 6.02172 13.4783 6.84999 14.5 6.84999Z" fill="#76ABAE"/>
<path d="M25.5 36.85C26.5218 36.85 27.35 36.0217 27.35 35C27.35 33.9783 26.5218 33.15 25.5 33.15C24.4783 33.15 23.65 33.9783 23.65 35C23.65 36.0217 24.4783 36.85 25.5 36.85Z" fill="#76ABAE"/>
<path d="M10 9.5H20" stroke="#76ABAE"/>
<path d="M20 30.5H30" stroke="#76ABAE"/>
<path d="M9.5 30C9.5 20 12 20 19.5 20C28 20 30.5 20 30.5 10" stroke="#76ABAE"/>
</g>
<defs>
<clipPath id="clip0_81_2">
<rect width="40" height="40" fill="white"/>
</clipPath>
</defs>
</svg>
