<svg width="185" height="1024" viewBox="0 0 185 1024" fill="none" xmlns="http://www.w3.org/2000/svg">
<rect y="5.10474" width="5" height="5.32517" fill="#C4C4C4" fill-opacity="0.21"/>
<rect x="20" y="5.10474" width="5" height="5.32517" fill="#C4C4C4" fill-opacity="0.21"/>
<rect x="40" y="5.10474" width="5" height="5.32517" fill="#C4C4C4" fill-opacity="0.21"/>
<rect x="60" y="5.10474" width="5" height="5.32517" fill="#C4C4C4" fill-opacity="0.21"/>
<rect x="80" y="5.10474" width="5" height="5.32517" fill="#C4C4C4" fill-opacity="0.21"/>
<rect x="100" y="5.10474" width="5" height="5.32517" fill="#C4C4C4" fill-opacity="0.21"/>
<rect x="120" y="5.10474" width="5" height="5.32517" fill="#C4C4C4" fill-opacity="0.21"/>
<rect x="140" y="5.10474" width="5" height="5.32517" fill="#C4C4C4" fill-opacity="0.21"/>
<rect x="160" y="5.10474" width="5" height="5.32517" fill="#C4C4C4" fill-opacity="0.21"/>
<rect x="180" y="5.10474" width="5" height="5.32517" fill="#C4C4C4" fill-opacity="0.21"/>
<rect y="26.4054" width="5" height="5.32517" fill="#C4C4C4" fill-opacity="0.21"/>
<rect x="20" y="26.4054" width="5" height="5.32517" fill="#C4C4C4" fill-opacity="0.21"/>
<rect x="40" y="26.4054" width="5" height="5.32517" fill="#C4C4C4" fill-opacity="0.21"/>
<rect x="60" y="26.4054" width="5" height="5.32517" fill="#C4C4C4" fill-opacity="0.21"/>
<rect x="80" y="26.4054" width="5" height="5.32517" fill="#C4C4C4" fill-opacity="0.21"/>
<rect x="100" y="26.4054" width="5" height="5.32517" fill="#C4C4C4" fill-opacity="0.21"/>
<rect x="120" y="26.4054" width="5" height="5.32517" fill="#C4C4C4" fill-opacity="0.21"/>
<rect x="140" y="26.4054" width="5" height="5.32517" fill="#C4C4C4" fill-opacity="0.21"/>
<rect x="160" y="26.4054" width="5" height="5.32517" fill="#C4C4C4" fill-opacity="0.21"/>
<rect x="180" y="26.4054" width="5" height="5.32517" fill="#C4C4C4" fill-opacity="0.21"/>
<rect y="47.7061" width="5" height="5.32517" fill="#C4C4C4" fill-opacity="0.21"/>
<rect x="20" y="47.7061" width="5" height="5.32517" fill="#C4C4C4" fill-opacity="0.21"/>
<rect x="40" y="47.7061" width="5" height="5.32517" fill="#C4C4C4" fill-opacity="0.21"/>
<rect x="60" y="47.7061" width="5" height="5.32517" fill="#C4C4C4" fill-opacity="0.21"/>
<rect x="80" y="47.7061" width="5" height="5.32517" fill="#C4C4C4" fill-opacity="0.21"/>
<rect x="100" y="47.7061" width="5" height="5.32517" fill="#C4C4C4" fill-opacity="0.21"/>
<rect x="120" y="47.7061" width="5" height="5.32517" fill="#C4C4C4" fill-opacity="0.21"/>
<rect x="140" y="47.7061" width="5" height="5.32517" fill="#C4C4C4" fill-opacity="0.21"/>
<rect x="160" y="47.7061" width="5" height="5.32517" fill="#C4C4C4" fill-opacity="0.21"/>
<rect x="180" y="47.7061" width="5" height="5.32517" fill="#C4C4C4" fill-opacity="0.21"/>
<rect y="69.0068" width="5" height="5.32517" fill="#C4C4C4" fill-opacity="0.21"/>
<rect x="20" y="69.0068" width="5" height="5.32517" fill="#C4C4C4" fill-opacity="0.21"/>
<rect x="40" y="69.0068" width="5" height="5.32517" fill="#C4C4C4" fill-opacity="0.21"/>
<rect x="60" y="69.0068" width="5" height="5.32517" fill="#C4C4C4" fill-opacity="0.21"/>
<rect x="80" y="69.0068" width="5" height="5.32517" fill="#C4C4C4" fill-opacity="0.21"/>
<rect x="100" y="69.0068" width="5" height="5.32517" fill="#C4C4C4" fill-opacity="0.21"/>
<rect x="120" y="69.0068" width="5" height="5.32517" fill="#C4C4C4" fill-opacity="0.21"/>
<rect x="140" y="69.0068" width="5" height="5.32517" fill="#C4C4C4" fill-opacity="0.21"/>
<rect x="160" y="69.0068" width="5" height="5.32517" fill="#C4C4C4" fill-opacity="0.21"/>
<rect x="180" y="69.0068" width="5" height="5.32517" fill="#C4C4C4" fill-opacity="0.21"/>
<rect y="90.3074" width="5" height="5.32517" fill="#C4C4C4" fill-opacity="0.21"/>
<rect x="20" y="90.3074" width="5" height="5.32517" fill="#C4C4C4" fill-opacity="0.21"/>
<rect x="40" y="90.3074" width="5" height="5.32517" fill="#C4C4C4" fill-opacity="0.21"/>
<rect x="60" y="90.3074" width="5" height="5.32517" fill="#C4C4C4" fill-opacity="0.21"/>
<rect x="80" y="90.3074" width="5" height="5.32517" fill="#C4C4C4" fill-opacity="0.21"/>
<rect x="100" y="90.3074" width="5" height="5.32517" fill="#C4C4C4" fill-opacity="0.21"/>
<rect x="120" y="90.3074" width="5" height="5.32517" fill="#C4C4C4" fill-opacity="0.21"/>
<rect x="140" y="90.3074" width="5" height="5.32517" fill="#C4C4C4" fill-opacity="0.21"/>
<rect x="160" y="90.3074" width="5" height="5.32517" fill="#C4C4C4" fill-opacity="0.21"/>
<rect x="180" y="90.3074" width="5" height="5.32517" fill="#C4C4C4" fill-opacity="0.21"/>
<rect y="111.608" width="5" height="5.32517" fill="#C4C4C4" fill-opacity="0.21"/>
<rect x="20" y="111.608" width="5" height="5.32517" fill="#C4C4C4" fill-opacity="0.21"/>
<rect x="40" y="111.608" width="5" height="5.32517" fill="#C4C4C4" fill-opacity="0.21"/>
<rect x="60" y="111.608" width="5" height="5.32517" fill="#C4C4C4" fill-opacity="0.21"/>
<rect x="80" y="111.608" width="5" height="5.32517" fill="#C4C4C4" fill-opacity="0.21"/>
<rect x="100" y="111.608" width="5" height="5.32517" fill="#C4C4C4" fill-opacity="0.21"/>
<rect x="120" y="111.608" width="5" height="5.32517" fill="#C4C4C4" fill-opacity="0.21"/>
<rect x="140" y="111.608" width="5" height="5.32517" fill="#C4C4C4" fill-opacity="0.21"/>
<rect x="160" y="111.608" width="5" height="5.32517" fill="#C4C4C4" fill-opacity="0.21"/>
<rect x="180" y="111.608" width="5" height="5.32517" fill="#C4C4C4" fill-opacity="0.21"/>
<rect y="132.909" width="5" height="5.32517" fill="#C4C4C4" fill-opacity="0.21"/>
<rect x="20" y="132.909" width="5" height="5.32517" fill="#C4C4C4" fill-opacity="0.21"/>
<rect x="40" y="132.909" width="5" height="5.32517" fill="#C4C4C4" fill-opacity="0.21"/>
<rect x="60" y="132.909" width="5" height="5.32517" fill="#C4C4C4" fill-opacity="0.21"/>
<rect x="80" y="132.909" width="5" height="5.32517" fill="#C4C4C4" fill-opacity="0.21"/>
<rect x="100" y="132.909" width="5" height="5.32517" fill="#C4C4C4" fill-opacity="0.21"/>
<rect x="120" y="132.909" width="5" height="5.32517" fill="#C4C4C4" fill-opacity="0.21"/>
<rect x="140" y="132.909" width="5" height="5.32517" fill="#C4C4C4" fill-opacity="0.21"/>
<rect x="160" y="132.909" width="5" height="5.32517" fill="#C4C4C4" fill-opacity="0.21"/>
<rect x="180" y="132.909" width="5" height="5.32517" fill="#C4C4C4" fill-opacity="0.21"/>
<rect y="154.209" width="5" height="5.32517" fill="#C4C4C4" fill-opacity="0.21"/>
<rect x="20" y="154.209" width="5" height="5.32517" fill="#C4C4C4" fill-opacity="0.21"/>
<rect x="40" y="154.209" width="5" height="5.32517" fill="#C4C4C4" fill-opacity="0.21"/>
<rect x="60" y="154.209" width="5" height="5.32517" fill="#C4C4C4" fill-opacity="0.21"/>
<rect x="80" y="154.209" width="5" height="5.32517" fill="#C4C4C4" fill-opacity="0.21"/>
<rect x="100" y="154.209" width="5" height="5.32517" fill="#C4C4C4" fill-opacity="0.21"/>
<rect x="120" y="154.209" width="5" height="5.32517" fill="#C4C4C4" fill-opacity="0.21"/>
<rect x="140" y="154.209" width="5" height="5.32517" fill="#C4C4C4" fill-opacity="0.21"/>
<rect x="160" y="154.209" width="5" height="5.32517" fill="#C4C4C4" fill-opacity="0.21"/>
<rect x="180" y="154.209" width="5" height="5.32517" fill="#C4C4C4" fill-opacity="0.21"/>
<rect y="175.51" width="5" height="5.32517" fill="#C4C4C4" fill-opacity="0.21"/>
<rect x="20" y="175.51" width="5" height="5.32517" fill="#C4C4C4" fill-opacity="0.21"/>
<rect x="40" y="175.51" width="5" height="5.32517" fill="#C4C4C4" fill-opacity="0.21"/>
<rect x="60" y="175.51" width="5" height="5.32517" fill="#C4C4C4" fill-opacity="0.21"/>
<rect x="80" y="175.51" width="5" height="5.32517" fill="#C4C4C4" fill-opacity="0.21"/>
<rect x="100" y="175.51" width="5" height="5.32517" fill="#C4C4C4" fill-opacity="0.21"/>
<rect x="120" y="175.51" width="5" height="5.32517" fill="#C4C4C4" fill-opacity="0.21"/>
<rect x="140" y="175.51" width="5" height="5.32517" fill="#C4C4C4" fill-opacity="0.21"/>
<rect x="160" y="175.51" width="5" height="5.32517" fill="#C4C4C4" fill-opacity="0.21"/>
<rect x="180" y="175.51" width="5" height="5.32517" fill="#C4C4C4" fill-opacity="0.21"/>
<rect y="196.811" width="5" height="5.32517" fill="#C4C4C4" fill-opacity="0.21"/>
<rect x="20" y="196.811" width="5" height="5.32517" fill="#C4C4C4" fill-opacity="0.21"/>
<rect x="40" y="196.811" width="5" height="5.32517" fill="#C4C4C4" fill-opacity="0.21"/>
<rect x="60" y="196.811" width="5" height="5.32517" fill="#C4C4C4" fill-opacity="0.21"/>
<rect x="80" y="196.811" width="5" height="5.32517" fill="#C4C4C4" fill-opacity="0.21"/>
<rect x="100" y="196.811" width="5" height="5.32517" fill="#C4C4C4" fill-opacity="0.21"/>
<rect x="120" y="196.811" width="5" height="5.32517" fill="#C4C4C4" fill-opacity="0.21"/>
<rect x="140" y="196.811" width="5" height="5.32517" fill="#C4C4C4" fill-opacity="0.21"/>
<rect x="160" y="196.811" width="5" height="5.32517" fill="#C4C4C4" fill-opacity="0.21"/>
<rect x="180" y="196.811" width="5" height="5.32517" fill="#C4C4C4" fill-opacity="0.21"/>
<rect y="218.111" width="5" height="5.32517" fill="#C4C4C4" fill-opacity="0.21"/>
<rect x="20" y="218.111" width="5" height="5.32517" fill="#C4C4C4" fill-opacity="0.21"/>
<rect x="40" y="218.111" width="5" height="5.32517" fill="#C4C4C4" fill-opacity="0.21"/>
<rect x="60" y="218.111" width="5" height="5.32517" fill="#C4C4C4" fill-opacity="0.21"/>
<rect x="80" y="218.111" width="5" height="5.32517" fill="#C4C4C4" fill-opacity="0.21"/>
<rect x="100" y="218.111" width="5" height="5.32517" fill="#C4C4C4" fill-opacity="0.21"/>
<rect x="120" y="218.111" width="5" height="5.32517" fill="#C4C4C4" fill-opacity="0.21"/>
<rect x="140" y="218.111" width="5" height="5.32517" fill="#C4C4C4" fill-opacity="0.21"/>
<rect x="160" y="218.111" width="5" height="5.32517" fill="#C4C4C4" fill-opacity="0.21"/>
<rect x="180" y="218.111" width="5" height="5.32517" fill="#C4C4C4" fill-opacity="0.21"/>
<rect y="239.412" width="5" height="5.32517" fill="#C4C4C4" fill-opacity="0.21"/>
<rect x="20" y="239.412" width="5" height="5.32517" fill="#C4C4C4" fill-opacity="0.21"/>
<rect x="40" y="239.412" width="5" height="5.32517" fill="#C4C4C4" fill-opacity="0.21"/>
<rect x="60" y="239.412" width="5" height="5.32517" fill="#C4C4C4" fill-opacity="0.21"/>
<rect x="80" y="239.412" width="5" height="5.32517" fill="#C4C4C4" fill-opacity="0.21"/>
<rect x="100" y="239.412" width="5" height="5.32517" fill="#C4C4C4" fill-opacity="0.21"/>
<rect x="120" y="239.412" width="5" height="5.32517" fill="#C4C4C4" fill-opacity="0.21"/>
<rect x="140" y="239.412" width="5" height="5.32517" fill="#C4C4C4" fill-opacity="0.21"/>
<rect x="160" y="239.412" width="5" height="5.32517" fill="#C4C4C4" fill-opacity="0.21"/>
<rect x="180" y="239.412" width="5" height="5.32517" fill="#C4C4C4" fill-opacity="0.21"/>
<rect y="260.713" width="5" height="5.32517" fill="#C4C4C4" fill-opacity="0.21"/>
<rect x="20" y="260.713" width="5" height="5.32517" fill="#C4C4C4" fill-opacity="0.21"/>
<rect x="40" y="260.713" width="5" height="5.32517" fill="#C4C4C4" fill-opacity="0.21"/>
<rect x="60" y="260.713" width="5" height="5.32517" fill="#C4C4C4" fill-opacity="0.21"/>
<rect x="80" y="260.713" width="5" height="5.32517" fill="#C4C4C4" fill-opacity="0.21"/>
<rect x="100" y="260.713" width="5" height="5.32517" fill="#C4C4C4" fill-opacity="0.21"/>
<rect x="120" y="260.713" width="5" height="5.32517" fill="#C4C4C4" fill-opacity="0.21"/>
<rect x="140" y="260.713" width="5" height="5.32517" fill="#C4C4C4" fill-opacity="0.21"/>
<rect x="160" y="260.713" width="5" height="5.32517" fill="#C4C4C4" fill-opacity="0.21"/>
<rect x="180" y="260.713" width="5" height="5.32517" fill="#C4C4C4" fill-opacity="0.21"/>
<rect y="282.014" width="5" height="5.32517" fill="#C4C4C4" fill-opacity="0.21"/>
<rect x="20" y="282.014" width="5" height="5.32517" fill="#C4C4C4" fill-opacity="0.21"/>
<rect x="40" y="282.014" width="5" height="5.32517" fill="#C4C4C4" fill-opacity="0.21"/>
<rect x="60" y="282.014" width="5" height="5.32517" fill="#C4C4C4" fill-opacity="0.21"/>
<rect x="80" y="282.014" width="5" height="5.32517" fill="#C4C4C4" fill-opacity="0.21"/>
<rect x="100" y="282.014" width="5" height="5.32517" fill="#C4C4C4" fill-opacity="0.21"/>
<rect x="120" y="282.014" width="5" height="5.32517" fill="#C4C4C4" fill-opacity="0.21"/>
<rect x="140" y="282.014" width="5" height="5.32517" fill="#C4C4C4" fill-opacity="0.21"/>
<rect x="160" y="282.014" width="5" height="5.32517" fill="#C4C4C4" fill-opacity="0.21"/>
<rect x="180" y="282.014" width="5" height="5.32517" fill="#C4C4C4" fill-opacity="0.21"/>
<rect y="303.314" width="5" height="5.32517" fill="#C4C4C4" fill-opacity="0.21"/>
<rect x="20" y="303.314" width="5" height="5.32517" fill="#C4C4C4" fill-opacity="0.21"/>
<rect x="40" y="303.314" width="5" height="5.32517" fill="#C4C4C4" fill-opacity="0.21"/>
<rect x="60" y="303.314" width="5" height="5.32517" fill="#C4C4C4" fill-opacity="0.21"/>
<rect x="80" y="303.314" width="5" height="5.32517" fill="#C4C4C4" fill-opacity="0.21"/>
<rect x="100" y="303.314" width="5" height="5.32517" fill="#C4C4C4" fill-opacity="0.21"/>
<rect x="120" y="303.314" width="5" height="5.32517" fill="#C4C4C4" fill-opacity="0.21"/>
<rect x="140" y="303.314" width="5" height="5.32517" fill="#C4C4C4" fill-opacity="0.21"/>
<rect x="160" y="303.314" width="5" height="5.32517" fill="#C4C4C4" fill-opacity="0.21"/>
<rect x="180" y="303.314" width="5" height="5.32517" fill="#C4C4C4" fill-opacity="0.21"/>
<rect y="324.615" width="5" height="5.32517" fill="#C4C4C4" fill-opacity="0.21"/>
<rect x="20" y="324.615" width="5" height="5.32517" fill="#C4C4C4" fill-opacity="0.21"/>
<rect x="40" y="324.615" width="5" height="5.32517" fill="#C4C4C4" fill-opacity="0.21"/>
<rect x="60" y="324.615" width="5" height="5.32517" fill="#C4C4C4" fill-opacity="0.21"/>
<rect x="80" y="324.615" width="5" height="5.32517" fill="#C4C4C4" fill-opacity="0.21"/>
<rect x="100" y="324.615" width="5" height="5.32517" fill="#C4C4C4" fill-opacity="0.21"/>
<rect x="120" y="324.615" width="5" height="5.32517" fill="#C4C4C4" fill-opacity="0.21"/>
<rect x="140" y="324.615" width="5" height="5.32517" fill="#C4C4C4" fill-opacity="0.21"/>
<rect x="160" y="324.615" width="5" height="5.32517" fill="#C4C4C4" fill-opacity="0.21"/>
<rect x="180" y="324.615" width="5" height="5.32517" fill="#C4C4C4" fill-opacity="0.21"/>
<rect y="345.916" width="5" height="5.32517" fill="#C4C4C4" fill-opacity="0.21"/>
<rect x="20" y="345.916" width="5" height="5.32517" fill="#C4C4C4" fill-opacity="0.21"/>
<rect x="40" y="345.916" width="5" height="5.32517" fill="#C4C4C4" fill-opacity="0.21"/>
<rect x="60" y="345.916" width="5" height="5.32517" fill="#C4C4C4" fill-opacity="0.21"/>
<rect x="80" y="345.916" width="5" height="5.32517" fill="#C4C4C4" fill-opacity="0.21"/>
<rect x="100" y="345.916" width="5" height="5.32517" fill="#C4C4C4" fill-opacity="0.21"/>
<rect x="120" y="345.916" width="5" height="5.32517" fill="#C4C4C4" fill-opacity="0.21"/>
<rect x="140" y="345.916" width="5" height="5.32517" fill="#C4C4C4" fill-opacity="0.21"/>
<rect x="160" y="345.916" width="5" height="5.32517" fill="#C4C4C4" fill-opacity="0.21"/>
<rect x="180" y="345.916" width="5" height="5.32517" fill="#C4C4C4" fill-opacity="0.21"/>
<rect y="367.216" width="5" height="5.32517" fill="#C4C4C4" fill-opacity="0.21"/>
<rect x="20" y="367.216" width="5" height="5.32517" fill="#C4C4C4" fill-opacity="0.21"/>
<rect x="40" y="367.216" width="5" height="5.32517" fill="#C4C4C4" fill-opacity="0.21"/>
<rect x="60" y="367.216" width="5" height="5.32517" fill="#C4C4C4" fill-opacity="0.21"/>
<rect x="80" y="367.216" width="5" height="5.32517" fill="#C4C4C4" fill-opacity="0.21"/>
<rect x="100" y="367.216" width="5" height="5.32517" fill="#C4C4C4" fill-opacity="0.21"/>
<rect x="120" y="367.216" width="5" height="5.32517" fill="#C4C4C4" fill-opacity="0.21"/>
<rect x="140" y="367.216" width="5" height="5.32517" fill="#C4C4C4" fill-opacity="0.21"/>
<rect x="160" y="367.216" width="5" height="5.32517" fill="#C4C4C4" fill-opacity="0.21"/>
<rect x="180" y="367.216" width="5" height="5.32517" fill="#C4C4C4" fill-opacity="0.21"/>
<rect y="388.517" width="5" height="5.32517" fill="#C4C4C4" fill-opacity="0.21"/>
<rect x="20" y="388.517" width="5" height="5.32517" fill="#C4C4C4" fill-opacity="0.21"/>
<rect x="40" y="388.517" width="5" height="5.32517" fill="#C4C4C4" fill-opacity="0.21"/>
<rect x="60" y="388.517" width="5" height="5.32517" fill="#C4C4C4" fill-opacity="0.21"/>
<rect x="80" y="388.517" width="5" height="5.32517" fill="#C4C4C4" fill-opacity="0.21"/>
<rect x="100" y="388.517" width="5" height="5.32517" fill="#C4C4C4" fill-opacity="0.21"/>
<rect x="120" y="388.517" width="5" height="5.32517" fill="#C4C4C4" fill-opacity="0.21"/>
<rect x="140" y="388.517" width="5" height="5.32517" fill="#C4C4C4" fill-opacity="0.21"/>
<rect x="160" y="388.517" width="5" height="5.32517" fill="#C4C4C4" fill-opacity="0.21"/>
<rect x="180" y="388.517" width="5" height="5.32517" fill="#C4C4C4" fill-opacity="0.21"/>
<rect y="409.818" width="5" height="5.32517" fill="#C4C4C4" fill-opacity="0.21"/>
<rect x="20" y="409.818" width="5" height="5.32517" fill="#C4C4C4" fill-opacity="0.21"/>
<rect x="40" y="409.818" width="5" height="5.32517" fill="#C4C4C4" fill-opacity="0.21"/>
<rect x="60" y="409.818" width="5" height="5.32517" fill="#C4C4C4" fill-opacity="0.21"/>
<rect x="80" y="409.818" width="5" height="5.32517" fill="#C4C4C4" fill-opacity="0.21"/>
<rect x="100" y="409.818" width="5" height="5.32517" fill="#C4C4C4" fill-opacity="0.21"/>
<rect x="120" y="409.818" width="5" height="5.32517" fill="#C4C4C4" fill-opacity="0.21"/>
<rect x="140" y="409.818" width="5" height="5.32517" fill="#C4C4C4" fill-opacity="0.21"/>
<rect x="160" y="409.818" width="5" height="5.32517" fill="#C4C4C4" fill-opacity="0.21"/>
<rect x="180" y="409.818" width="5" height="5.32517" fill="#C4C4C4" fill-opacity="0.21"/>
<rect y="431.118" width="5" height="5.32517" fill="#C4C4C4" fill-opacity="0.21"/>
<rect x="20" y="431.118" width="5" height="5.32517" fill="#C4C4C4" fill-opacity="0.21"/>
<rect x="40" y="431.118" width="5" height="5.32517" fill="#C4C4C4" fill-opacity="0.21"/>
<rect x="60" y="431.118" width="5" height="5.32517" fill="#C4C4C4" fill-opacity="0.21"/>
<rect x="80" y="431.118" width="5" height="5.32517" fill="#C4C4C4" fill-opacity="0.21"/>
<rect x="100" y="431.118" width="5" height="5.32517" fill="#C4C4C4" fill-opacity="0.21"/>
<rect x="120" y="431.118" width="5" height="5.32517" fill="#C4C4C4" fill-opacity="0.21"/>
<rect x="140" y="431.118" width="5" height="5.32517" fill="#C4C4C4" fill-opacity="0.21"/>
<rect x="160" y="431.118" width="5" height="5.32517" fill="#C4C4C4" fill-opacity="0.21"/>
<rect x="180" y="431.118" width="5" height="5.32517" fill="#C4C4C4" fill-opacity="0.21"/>
<rect y="452.419" width="5" height="5.32517" fill="#C4C4C4" fill-opacity="0.21"/>
<rect x="20" y="452.419" width="5" height="5.32517" fill="#C4C4C4" fill-opacity="0.21"/>
<rect x="40" y="452.419" width="5" height="5.32517" fill="#C4C4C4" fill-opacity="0.21"/>
<rect x="60" y="452.419" width="5" height="5.32517" fill="#C4C4C4" fill-opacity="0.21"/>
<rect x="80" y="452.419" width="5" height="5.32517" fill="#C4C4C4" fill-opacity="0.21"/>
<rect x="100" y="452.419" width="5" height="5.32517" fill="#C4C4C4" fill-opacity="0.21"/>
<rect x="120" y="452.419" width="5" height="5.32517" fill="#C4C4C4" fill-opacity="0.21"/>
<rect x="140" y="452.419" width="5" height="5.32517" fill="#C4C4C4" fill-opacity="0.21"/>
<rect x="160" y="452.419" width="5" height="5.32517" fill="#C4C4C4" fill-opacity="0.21"/>
<rect x="180" y="452.419" width="5" height="5.32517" fill="#C4C4C4" fill-opacity="0.21"/>
<rect y="473.72" width="5" height="5.32517" fill="#C4C4C4" fill-opacity="0.21"/>
<rect x="20" y="473.72" width="5" height="5.32517" fill="#C4C4C4" fill-opacity="0.21"/>
<rect x="40" y="473.72" width="5" height="5.32517" fill="#C4C4C4" fill-opacity="0.21"/>
<rect x="60" y="473.72" width="5" height="5.32517" fill="#C4C4C4" fill-opacity="0.21"/>
<rect x="80" y="473.72" width="5" height="5.32517" fill="#C4C4C4" fill-opacity="0.21"/>
<rect x="100" y="473.72" width="5" height="5.32517" fill="#C4C4C4" fill-opacity="0.21"/>
<rect x="120" y="473.72" width="5" height="5.32517" fill="#C4C4C4" fill-opacity="0.21"/>
<rect x="140" y="473.72" width="5" height="5.32517" fill="#C4C4C4" fill-opacity="0.21"/>
<rect x="160" y="473.72" width="5" height="5.32517" fill="#C4C4C4" fill-opacity="0.21"/>
<rect x="180" y="473.72" width="5" height="5.32517" fill="#C4C4C4" fill-opacity="0.21"/>
<rect y="493.955" width="5" height="5.32517" fill="#C4C4C4" fill-opacity="0.21"/>
<rect x="20" y="493.955" width="5" height="5.32517" fill="#C4C4C4" fill-opacity="0.21"/>
<rect x="40" y="493.955" width="5" height="5.32517" fill="#C4C4C4" fill-opacity="0.21"/>
<rect x="60" y="493.955" width="5" height="5.32517" fill="#C4C4C4" fill-opacity="0.21"/>
<rect x="80" y="493.955" width="5" height="5.32517" fill="#C4C4C4" fill-opacity="0.21"/>
<rect x="100" y="493.955" width="5" height="5.32517" fill="#C4C4C4" fill-opacity="0.21"/>
<rect x="120" y="493.955" width="5" height="5.32517" fill="#C4C4C4" fill-opacity="0.21"/>
<rect x="140" y="493.955" width="5" height="5.32517" fill="#C4C4C4" fill-opacity="0.21"/>
<rect x="160" y="493.955" width="5" height="5.32517" fill="#C4C4C4" fill-opacity="0.21"/>
<rect x="180" y="493.955" width="5" height="5.32517" fill="#C4C4C4" fill-opacity="0.21"/>
<rect y="515.256" width="5" height="5.32517" fill="#C4C4C4" fill-opacity="0.21"/>
<rect x="20" y="515.256" width="5" height="5.32517" fill="#C4C4C4" fill-opacity="0.21"/>
<rect x="40" y="515.256" width="5" height="5.32517" fill="#C4C4C4" fill-opacity="0.21"/>
<rect x="60" y="515.256" width="5" height="5.32517" fill="#C4C4C4" fill-opacity="0.21"/>
<rect x="80" y="515.256" width="5" height="5.32517" fill="#C4C4C4" fill-opacity="0.21"/>
<rect x="100" y="515.256" width="5" height="5.32517" fill="#C4C4C4" fill-opacity="0.21"/>
<rect x="120" y="515.256" width="5" height="5.32517" fill="#C4C4C4" fill-opacity="0.21"/>
<rect x="140" y="515.256" width="5" height="5.32517" fill="#C4C4C4" fill-opacity="0.21"/>
<rect x="160" y="515.256" width="5" height="5.32517" fill="#C4C4C4" fill-opacity="0.21"/>
<rect x="180" y="515.256" width="5" height="5.32517" fill="#C4C4C4" fill-opacity="0.21"/>
<rect y="536.557" width="5" height="5.32517" fill="#C4C4C4" fill-opacity="0.21"/>
<rect x="20" y="536.557" width="5" height="5.32517" fill="#C4C4C4" fill-opacity="0.21"/>
<rect x="40" y="536.557" width="5" height="5.32517" fill="#C4C4C4" fill-opacity="0.21"/>
<rect x="60" y="536.557" width="5" height="5.32517" fill="#C4C4C4" fill-opacity="0.21"/>
<rect x="80" y="536.557" width="5" height="5.32517" fill="#C4C4C4" fill-opacity="0.21"/>
<rect x="100" y="536.557" width="5" height="5.32517" fill="#C4C4C4" fill-opacity="0.21"/>
<rect x="120" y="536.557" width="5" height="5.32517" fill="#C4C4C4" fill-opacity="0.21"/>
<rect x="140" y="536.557" width="5" height="5.32517" fill="#C4C4C4" fill-opacity="0.21"/>
<rect x="160" y="536.557" width="5" height="5.32517" fill="#C4C4C4" fill-opacity="0.21"/>
<rect x="180" y="536.557" width="5" height="5.32517" fill="#C4C4C4" fill-opacity="0.21"/>
<rect y="557.857" width="5" height="5.32517" fill="#C4C4C4" fill-opacity="0.21"/>
<rect x="20" y="557.857" width="5" height="5.32517" fill="#C4C4C4" fill-opacity="0.21"/>
<rect x="40" y="557.857" width="5" height="5.32517" fill="#C4C4C4" fill-opacity="0.21"/>
<rect x="60" y="557.857" width="5" height="5.32517" fill="#C4C4C4" fill-opacity="0.21"/>
<rect x="80" y="557.857" width="5" height="5.32517" fill="#C4C4C4" fill-opacity="0.21"/>
<rect x="100" y="557.857" width="5" height="5.32517" fill="#C4C4C4" fill-opacity="0.21"/>
<rect x="120" y="557.857" width="5" height="5.32517" fill="#C4C4C4" fill-opacity="0.21"/>
<rect x="140" y="557.857" width="5" height="5.32517" fill="#C4C4C4" fill-opacity="0.21"/>
<rect x="160" y="557.857" width="5" height="5.32517" fill="#C4C4C4" fill-opacity="0.21"/>
<rect x="180" y="557.857" width="5" height="5.32517" fill="#C4C4C4" fill-opacity="0.21"/>
<rect y="579.158" width="5" height="5.32517" fill="#C4C4C4" fill-opacity="0.21"/>
<rect x="20" y="579.158" width="5" height="5.32517" fill="#C4C4C4" fill-opacity="0.21"/>
<rect x="40" y="579.158" width="5" height="5.32517" fill="#C4C4C4" fill-opacity="0.21"/>
<rect x="60" y="579.158" width="5" height="5.32517" fill="#C4C4C4" fill-opacity="0.21"/>
<rect x="80" y="579.158" width="5" height="5.32517" fill="#C4C4C4" fill-opacity="0.21"/>
<rect x="100" y="579.158" width="5" height="5.32517" fill="#C4C4C4" fill-opacity="0.21"/>
<rect x="120" y="579.158" width="5" height="5.32517" fill="#C4C4C4" fill-opacity="0.21"/>
<rect x="140" y="579.158" width="5" height="5.32517" fill="#C4C4C4" fill-opacity="0.21"/>
<rect x="160" y="579.158" width="5" height="5.32517" fill="#C4C4C4" fill-opacity="0.21"/>
<rect x="180" y="579.158" width="5" height="5.32517" fill="#C4C4C4" fill-opacity="0.21"/>
<rect y="600.459" width="5" height="5.32517" fill="#C4C4C4" fill-opacity="0.21"/>
<rect x="20" y="600.459" width="5" height="5.32517" fill="#C4C4C4" fill-opacity="0.21"/>
<rect x="40" y="600.459" width="5" height="5.32517" fill="#C4C4C4" fill-opacity="0.21"/>
<rect x="60" y="600.459" width="5" height="5.32517" fill="#C4C4C4" fill-opacity="0.21"/>
<rect x="80" y="600.459" width="5" height="5.32517" fill="#C4C4C4" fill-opacity="0.21"/>
<rect x="100" y="600.459" width="5" height="5.32517" fill="#C4C4C4" fill-opacity="0.21"/>
<rect x="120" y="600.459" width="5" height="5.32517" fill="#C4C4C4" fill-opacity="0.21"/>
<rect x="140" y="600.459" width="5" height="5.32517" fill="#C4C4C4" fill-opacity="0.21"/>
<rect x="160" y="600.459" width="5" height="5.32517" fill="#C4C4C4" fill-opacity="0.21"/>
<rect x="180" y="600.459" width="5" height="5.32517" fill="#C4C4C4" fill-opacity="0.21"/>
<rect y="621.759" width="5" height="5.32517" fill="#C4C4C4" fill-opacity="0.21"/>
<rect x="20" y="621.759" width="5" height="5.32517" fill="#C4C4C4" fill-opacity="0.21"/>
<rect x="40" y="621.759" width="5" height="5.32517" fill="#C4C4C4" fill-opacity="0.21"/>
<rect x="60" y="621.759" width="5" height="5.32517" fill="#C4C4C4" fill-opacity="0.21"/>
<rect x="80" y="621.759" width="5" height="5.32517" fill="#C4C4C4" fill-opacity="0.21"/>
<rect x="100" y="621.759" width="5" height="5.32517" fill="#C4C4C4" fill-opacity="0.21"/>
<rect x="120" y="621.759" width="5" height="5.32517" fill="#C4C4C4" fill-opacity="0.21"/>
<rect x="140" y="621.759" width="5" height="5.32517" fill="#C4C4C4" fill-opacity="0.21"/>
<rect x="160" y="621.759" width="5" height="5.32517" fill="#C4C4C4" fill-opacity="0.21"/>
<rect x="180" y="621.759" width="5" height="5.32517" fill="#C4C4C4" fill-opacity="0.21"/>
<rect y="643.06" width="5" height="5.32517" fill="#C4C4C4" fill-opacity="0.21"/>
<rect x="20" y="643.06" width="5" height="5.32517" fill="#C4C4C4" fill-opacity="0.21"/>
<rect x="40" y="643.06" width="5" height="5.32517" fill="#C4C4C4" fill-opacity="0.21"/>
<rect x="60" y="643.06" width="5" height="5.32517" fill="#C4C4C4" fill-opacity="0.21"/>
<rect x="80" y="643.06" width="5" height="5.32517" fill="#C4C4C4" fill-opacity="0.21"/>
<rect x="100" y="643.06" width="5" height="5.32517" fill="#C4C4C4" fill-opacity="0.21"/>
<rect x="120" y="643.06" width="5" height="5.32517" fill="#C4C4C4" fill-opacity="0.21"/>
<rect x="140" y="643.06" width="5" height="5.32517" fill="#C4C4C4" fill-opacity="0.21"/>
<rect x="160" y="643.06" width="5" height="5.32517" fill="#C4C4C4" fill-opacity="0.21"/>
<rect x="180" y="643.06" width="5" height="5.32517" fill="#C4C4C4" fill-opacity="0.21"/>
<rect y="664.361" width="5" height="5.32517" fill="#C4C4C4" fill-opacity="0.21"/>
<rect x="20" y="664.361" width="5" height="5.32517" fill="#C4C4C4" fill-opacity="0.21"/>
<rect x="40" y="664.361" width="5" height="5.32517" fill="#C4C4C4" fill-opacity="0.21"/>
<rect x="60" y="664.361" width="5" height="5.32517" fill="#C4C4C4" fill-opacity="0.21"/>
<rect x="80" y="664.361" width="5" height="5.32517" fill="#C4C4C4" fill-opacity="0.21"/>
<rect x="100" y="664.361" width="5" height="5.32517" fill="#C4C4C4" fill-opacity="0.21"/>
<rect x="120" y="664.361" width="5" height="5.32517" fill="#C4C4C4" fill-opacity="0.21"/>
<rect x="140" y="664.361" width="5" height="5.32517" fill="#C4C4C4" fill-opacity="0.21"/>
<rect x="160" y="664.361" width="5" height="5.32517" fill="#C4C4C4" fill-opacity="0.21"/>
<rect x="180" y="664.361" width="5" height="5.32517" fill="#C4C4C4" fill-opacity="0.21"/>
<rect y="685.661" width="5" height="5.32517" fill="#C4C4C4" fill-opacity="0.21"/>
<rect x="20" y="685.661" width="5" height="5.32517" fill="#C4C4C4" fill-opacity="0.21"/>
<rect x="40" y="685.661" width="5" height="5.32517" fill="#C4C4C4" fill-opacity="0.21"/>
<rect x="60" y="685.661" width="5" height="5.32517" fill="#C4C4C4" fill-opacity="0.21"/>
<rect x="80" y="685.661" width="5" height="5.32517" fill="#C4C4C4" fill-opacity="0.21"/>
<rect x="100" y="685.661" width="5" height="5.32517" fill="#C4C4C4" fill-opacity="0.21"/>
<rect x="120" y="685.661" width="5" height="5.32517" fill="#C4C4C4" fill-opacity="0.21"/>
<rect x="140" y="685.661" width="5" height="5.32517" fill="#C4C4C4" fill-opacity="0.21"/>
<rect x="160" y="685.661" width="5" height="5.32517" fill="#C4C4C4" fill-opacity="0.21"/>
<rect x="180" y="685.661" width="5" height="5.32517" fill="#C4C4C4" fill-opacity="0.21"/>
<rect y="706.962" width="5" height="5.32517" fill="#C4C4C4" fill-opacity="0.21"/>
<rect x="20" y="706.962" width="5" height="5.32517" fill="#C4C4C4" fill-opacity="0.21"/>
<rect x="40" y="706.962" width="5" height="5.32517" fill="#C4C4C4" fill-opacity="0.21"/>
<rect x="60" y="706.962" width="5" height="5.32517" fill="#C4C4C4" fill-opacity="0.21"/>
<rect x="80" y="706.962" width="5" height="5.32517" fill="#C4C4C4" fill-opacity="0.21"/>
<rect x="100" y="706.962" width="5" height="5.32517" fill="#C4C4C4" fill-opacity="0.21"/>
<rect x="120" y="706.962" width="5" height="5.32517" fill="#C4C4C4" fill-opacity="0.21"/>
<rect x="140" y="706.962" width="5" height="5.32517" fill="#C4C4C4" fill-opacity="0.21"/>
<rect x="160" y="706.962" width="5" height="5.32517" fill="#C4C4C4" fill-opacity="0.21"/>
<rect x="180" y="706.962" width="5" height="5.32517" fill="#C4C4C4" fill-opacity="0.21"/>
<rect y="728.263" width="5" height="5.32517" fill="#C4C4C4" fill-opacity="0.21"/>
<rect x="20" y="728.263" width="5" height="5.32517" fill="#C4C4C4" fill-opacity="0.21"/>
<rect x="40" y="728.263" width="5" height="5.32517" fill="#C4C4C4" fill-opacity="0.21"/>
<rect x="60" y="728.263" width="5" height="5.32517" fill="#C4C4C4" fill-opacity="0.21"/>
<rect x="80" y="728.263" width="5" height="5.32517" fill="#C4C4C4" fill-opacity="0.21"/>
<rect x="100" y="728.263" width="5" height="5.32517" fill="#C4C4C4" fill-opacity="0.21"/>
<rect x="120" y="728.263" width="5" height="5.32517" fill="#C4C4C4" fill-opacity="0.21"/>
<rect x="140" y="728.263" width="5" height="5.32517" fill="#C4C4C4" fill-opacity="0.21"/>
<rect x="160" y="728.263" width="5" height="5.32517" fill="#C4C4C4" fill-opacity="0.21"/>
<rect x="180" y="728.263" width="5" height="5.32517" fill="#C4C4C4" fill-opacity="0.21"/>
<rect y="749.563" width="5" height="5.32517" fill="#C4C4C4" fill-opacity="0.21"/>
<rect x="20" y="749.563" width="5" height="5.32517" fill="#C4C4C4" fill-opacity="0.21"/>
<rect x="40" y="749.563" width="5" height="5.32517" fill="#C4C4C4" fill-opacity="0.21"/>
<rect x="60" y="749.563" width="5" height="5.32517" fill="#C4C4C4" fill-opacity="0.21"/>
<rect x="80" y="749.563" width="5" height="5.32517" fill="#C4C4C4" fill-opacity="0.21"/>
<rect x="100" y="749.563" width="5" height="5.32517" fill="#C4C4C4" fill-opacity="0.21"/>
<rect x="120" y="749.563" width="5" height="5.32517" fill="#C4C4C4" fill-opacity="0.21"/>
<rect x="140" y="749.563" width="5" height="5.32517" fill="#C4C4C4" fill-opacity="0.21"/>
<rect x="160" y="749.563" width="5" height="5.32517" fill="#C4C4C4" fill-opacity="0.21"/>
<rect x="180" y="749.563" width="5" height="5.32517" fill="#C4C4C4" fill-opacity="0.21"/>
<rect y="770.864" width="5" height="5.32517" fill="#C4C4C4" fill-opacity="0.21"/>
<rect x="20" y="770.864" width="5" height="5.32517" fill="#C4C4C4" fill-opacity="0.21"/>
<rect x="40" y="770.864" width="5" height="5.32517" fill="#C4C4C4" fill-opacity="0.21"/>
<rect x="60" y="770.864" width="5" height="5.32517" fill="#C4C4C4" fill-opacity="0.21"/>
<rect x="80" y="770.864" width="5" height="5.32517" fill="#C4C4C4" fill-opacity="0.21"/>
<rect x="100" y="770.864" width="5" height="5.32517" fill="#C4C4C4" fill-opacity="0.21"/>
<rect x="120" y="770.864" width="5" height="5.32517" fill="#C4C4C4" fill-opacity="0.21"/>
<rect x="140" y="770.864" width="5" height="5.32517" fill="#C4C4C4" fill-opacity="0.21"/>
<rect x="160" y="770.864" width="5" height="5.32517" fill="#C4C4C4" fill-opacity="0.21"/>
<rect x="180" y="770.864" width="5" height="5.32517" fill="#C4C4C4" fill-opacity="0.21"/>
<rect y="792.165" width="5" height="5.32517" fill="#C4C4C4" fill-opacity="0.21"/>
<rect x="20" y="792.165" width="5" height="5.32517" fill="#C4C4C4" fill-opacity="0.21"/>
<rect x="40" y="792.165" width="5" height="5.32517" fill="#C4C4C4" fill-opacity="0.21"/>
<rect x="60" y="792.165" width="5" height="5.32517" fill="#C4C4C4" fill-opacity="0.21"/>
<rect x="80" y="792.165" width="5" height="5.32517" fill="#C4C4C4" fill-opacity="0.21"/>
<rect x="100" y="792.165" width="5" height="5.32517" fill="#C4C4C4" fill-opacity="0.21"/>
<rect x="120" y="792.165" width="5" height="5.32517" fill="#C4C4C4" fill-opacity="0.21"/>
<rect x="140" y="792.165" width="5" height="5.32517" fill="#C4C4C4" fill-opacity="0.21"/>
<rect x="160" y="792.165" width="5" height="5.32517" fill="#C4C4C4" fill-opacity="0.21"/>
<rect x="180" y="792.165" width="5" height="5.32517" fill="#C4C4C4" fill-opacity="0.21"/>
<rect y="813.465" width="5" height="5.32517" fill="#C4C4C4" fill-opacity="0.21"/>
<rect x="20" y="813.465" width="5" height="5.32517" fill="#C4C4C4" fill-opacity="0.21"/>
<rect x="40" y="813.465" width="5" height="5.32517" fill="#C4C4C4" fill-opacity="0.21"/>
<rect x="60" y="813.465" width="5" height="5.32517" fill="#C4C4C4" fill-opacity="0.21"/>
<rect x="80" y="813.465" width="5" height="5.32517" fill="#C4C4C4" fill-opacity="0.21"/>
<rect x="100" y="813.465" width="5" height="5.32517" fill="#C4C4C4" fill-opacity="0.21"/>
<rect x="120" y="813.465" width="5" height="5.32517" fill="#C4C4C4" fill-opacity="0.21"/>
<rect x="140" y="813.465" width="5" height="5.32517" fill="#C4C4C4" fill-opacity="0.21"/>
<rect x="160" y="813.465" width="5" height="5.32517" fill="#C4C4C4" fill-opacity="0.21"/>
<rect x="180" y="813.465" width="5" height="5.32517" fill="#C4C4C4" fill-opacity="0.21"/>
<rect y="834.766" width="5" height="5.32517" fill="#C4C4C4" fill-opacity="0.21"/>
<rect x="20" y="834.766" width="5" height="5.32517" fill="#C4C4C4" fill-opacity="0.21"/>
<rect x="40" y="834.766" width="5" height="5.32517" fill="#C4C4C4" fill-opacity="0.21"/>
<rect x="60" y="834.766" width="5" height="5.32517" fill="#C4C4C4" fill-opacity="0.21"/>
<rect x="80" y="834.766" width="5" height="5.32517" fill="#C4C4C4" fill-opacity="0.21"/>
<rect x="100" y="834.766" width="5" height="5.32517" fill="#C4C4C4" fill-opacity="0.21"/>
<rect x="120" y="834.766" width="5" height="5.32517" fill="#C4C4C4" fill-opacity="0.21"/>
<rect x="140" y="834.766" width="5" height="5.32517" fill="#C4C4C4" fill-opacity="0.21"/>
<rect x="160" y="834.766" width="5" height="5.32517" fill="#C4C4C4" fill-opacity="0.21"/>
<rect x="180" y="834.766" width="5" height="5.32517" fill="#C4C4C4" fill-opacity="0.21"/>
<rect y="856.067" width="5" height="5.32517" fill="#C4C4C4" fill-opacity="0.21"/>
<rect x="20" y="856.067" width="5" height="5.32517" fill="#C4C4C4" fill-opacity="0.21"/>
<rect x="40" y="856.067" width="5" height="5.32517" fill="#C4C4C4" fill-opacity="0.21"/>
<rect x="60" y="856.067" width="5" height="5.32517" fill="#C4C4C4" fill-opacity="0.21"/>
<rect x="80" y="856.067" width="5" height="5.32517" fill="#C4C4C4" fill-opacity="0.21"/>
<rect x="100" y="856.067" width="5" height="5.32517" fill="#C4C4C4" fill-opacity="0.21"/>
<rect x="120" y="856.067" width="5" height="5.32517" fill="#C4C4C4" fill-opacity="0.21"/>
<rect x="140" y="856.067" width="5" height="5.32517" fill="#C4C4C4" fill-opacity="0.21"/>
<rect x="160" y="856.067" width="5" height="5.32517" fill="#C4C4C4" fill-opacity="0.21"/>
<rect x="180" y="856.067" width="5" height="5.32517" fill="#C4C4C4" fill-opacity="0.21"/>
<rect y="877.367" width="5" height="5.32517" fill="#C4C4C4" fill-opacity="0.21"/>
<rect x="20" y="877.367" width="5" height="5.32517" fill="#C4C4C4" fill-opacity="0.21"/>
<rect x="40" y="877.367" width="5" height="5.32517" fill="#C4C4C4" fill-opacity="0.21"/>
<rect x="60" y="877.367" width="5" height="5.32517" fill="#C4C4C4" fill-opacity="0.21"/>
<rect x="80" y="877.367" width="5" height="5.32517" fill="#C4C4C4" fill-opacity="0.21"/>
<rect x="100" y="877.367" width="5" height="5.32517" fill="#C4C4C4" fill-opacity="0.21"/>
<rect x="120" y="877.367" width="5" height="5.32517" fill="#C4C4C4" fill-opacity="0.21"/>
<rect x="140" y="877.367" width="5" height="5.32517" fill="#C4C4C4" fill-opacity="0.21"/>
<rect x="160" y="877.367" width="5" height="5.32517" fill="#C4C4C4" fill-opacity="0.21"/>
<rect x="180" y="877.367" width="5" height="5.32517" fill="#C4C4C4" fill-opacity="0.21"/>
<rect y="898.668" width="5" height="5.32517" fill="#C4C4C4" fill-opacity="0.21"/>
<rect x="20" y="898.668" width="5" height="5.32517" fill="#C4C4C4" fill-opacity="0.21"/>
<rect x="40" y="898.668" width="5" height="5.32517" fill="#C4C4C4" fill-opacity="0.21"/>
<rect x="60" y="898.668" width="5" height="5.32517" fill="#C4C4C4" fill-opacity="0.21"/>
<rect x="80" y="898.668" width="5" height="5.32517" fill="#C4C4C4" fill-opacity="0.21"/>
<rect x="100" y="898.668" width="5" height="5.32517" fill="#C4C4C4" fill-opacity="0.21"/>
<rect x="120" y="898.668" width="5" height="5.32517" fill="#C4C4C4" fill-opacity="0.21"/>
<rect x="140" y="898.668" width="5" height="5.32517" fill="#C4C4C4" fill-opacity="0.21"/>
<rect x="160" y="898.668" width="5" height="5.32517" fill="#C4C4C4" fill-opacity="0.21"/>
<rect x="180" y="898.668" width="5" height="5.32517" fill="#C4C4C4" fill-opacity="0.21"/>
<rect y="919.969" width="5" height="5.32517" fill="#C4C4C4" fill-opacity="0.21"/>
<rect x="20" y="919.969" width="5" height="5.32517" fill="#C4C4C4" fill-opacity="0.21"/>
<rect x="40" y="919.969" width="5" height="5.32517" fill="#C4C4C4" fill-opacity="0.21"/>
<rect x="60" y="919.969" width="5" height="5.32517" fill="#C4C4C4" fill-opacity="0.21"/>
<rect x="80" y="919.969" width="5" height="5.32517" fill="#C4C4C4" fill-opacity="0.21"/>
<rect x="100" y="919.969" width="5" height="5.32517" fill="#C4C4C4" fill-opacity="0.21"/>
<rect x="120" y="919.969" width="5" height="5.32517" fill="#C4C4C4" fill-opacity="0.21"/>
<rect x="140" y="919.969" width="5" height="5.32517" fill="#C4C4C4" fill-opacity="0.21"/>
<rect x="160" y="919.969" width="5" height="5.32517" fill="#C4C4C4" fill-opacity="0.21"/>
<rect x="180" y="919.969" width="5" height="5.32517" fill="#C4C4C4" fill-opacity="0.21"/>
<rect y="941.269" width="5" height="5.32517" fill="#C4C4C4" fill-opacity="0.21"/>
<rect x="20" y="941.269" width="5" height="5.32517" fill="#C4C4C4" fill-opacity="0.21"/>
<rect x="40" y="941.269" width="5" height="5.32517" fill="#C4C4C4" fill-opacity="0.21"/>
<rect x="60" y="941.269" width="5" height="5.32517" fill="#C4C4C4" fill-opacity="0.21"/>
<rect x="80" y="941.269" width="5" height="5.32517" fill="#C4C4C4" fill-opacity="0.21"/>
<rect x="100" y="941.269" width="5" height="5.32517" fill="#C4C4C4" fill-opacity="0.21"/>
<rect x="120" y="941.269" width="5" height="5.32517" fill="#C4C4C4" fill-opacity="0.21"/>
<rect x="140" y="941.269" width="5" height="5.32517" fill="#C4C4C4" fill-opacity="0.21"/>
<rect x="160" y="941.269" width="5" height="5.32517" fill="#C4C4C4" fill-opacity="0.21"/>
<rect x="180" y="941.269" width="5" height="5.32517" fill="#C4C4C4" fill-opacity="0.21"/>
<rect y="962.57" width="5" height="5.32517" fill="#C4C4C4" fill-opacity="0.21"/>
<rect x="20" y="962.57" width="5" height="5.32517" fill="#C4C4C4" fill-opacity="0.21"/>
<rect x="40" y="962.57" width="5" height="5.32517" fill="#C4C4C4" fill-opacity="0.21"/>
<rect x="60" y="962.57" width="5" height="5.32517" fill="#C4C4C4" fill-opacity="0.21"/>
<rect x="80" y="962.57" width="5" height="5.32517" fill="#C4C4C4" fill-opacity="0.21"/>
<rect x="100" y="962.57" width="5" height="5.32517" fill="#C4C4C4" fill-opacity="0.21"/>
<rect x="120" y="962.57" width="5" height="5.32517" fill="#C4C4C4" fill-opacity="0.21"/>
<rect x="140" y="962.57" width="5" height="5.32517" fill="#C4C4C4" fill-opacity="0.21"/>
<rect x="160" y="962.57" width="5" height="5.32517" fill="#C4C4C4" fill-opacity="0.21"/>
<rect x="180" y="962.57" width="5" height="5.32517" fill="#C4C4C4" fill-opacity="0.21"/>
<rect y="983.871" width="5" height="5.32517" fill="#C4C4C4" fill-opacity="0.21"/>
<rect x="20" y="983.871" width="5" height="5.32517" fill="#C4C4C4" fill-opacity="0.21"/>
<rect x="40" y="983.871" width="5" height="5.32517" fill="#C4C4C4" fill-opacity="0.21"/>
<rect x="60" y="983.871" width="5" height="5.32517" fill="#C4C4C4" fill-opacity="0.21"/>
<rect x="80" y="983.871" width="5" height="5.32517" fill="#C4C4C4" fill-opacity="0.21"/>
<rect x="100" y="983.871" width="5" height="5.32517" fill="#C4C4C4" fill-opacity="0.21"/>
<rect x="120" y="983.871" width="5" height="5.32517" fill="#C4C4C4" fill-opacity="0.21"/>
<rect x="140" y="983.871" width="5" height="5.32517" fill="#C4C4C4" fill-opacity="0.21"/>
<rect x="160" y="983.871" width="5" height="5.32517" fill="#C4C4C4" fill-opacity="0.21"/>
<rect x="180" y="983.871" width="5" height="5.32517" fill="#C4C4C4" fill-opacity="0.21"/>
<rect y="1005.17" width="5" height="5.32517" fill="#C4C4C4" fill-opacity="0.21"/>
<rect x="20" y="1005.17" width="5" height="5.32517" fill="#C4C4C4" fill-opacity="0.21"/>
<rect x="40" y="1005.17" width="5" height="5.32517" fill="#C4C4C4" fill-opacity="0.21"/>
<rect x="60" y="1005.17" width="5" height="5.32517" fill="#C4C4C4" fill-opacity="0.21"/>
<rect x="80" y="1005.17" width="5" height="5.32517" fill="#C4C4C4" fill-opacity="0.21"/>
<rect x="100" y="1005.17" width="5" height="5.32517" fill="#C4C4C4" fill-opacity="0.21"/>
<rect x="120" y="1005.17" width="5" height="5.32517" fill="#C4C4C4" fill-opacity="0.21"/>
<rect x="140" y="1005.17" width="5" height="5.32517" fill="#C4C4C4" fill-opacity="0.21"/>
<rect x="160" y="1005.17" width="5" height="5.32517" fill="#C4C4C4" fill-opacity="0.21"/>
<rect x="180" y="1005.17" width="5" height="5.32517" fill="#C4C4C4" fill-opacity="0.21"/>
</svg>
