<?xml version="1.0" encoding="UTF-8"?><svg xmlns="http://www.w3.org/2000/svg" xmlns:xlink="http://www.w3.org/1999/xlink" version="1.1" id="Layer_1" x="0px" y="0px" viewBox="0 0 24 24" xml:space="preserve"><path fill="#FFFFFF" d="M12 18a.5.5 0 0 1-.346-.138l-11.5-11a.5.5 0 0 1 .692-.723L12 16.809l11.154-10.67a.5.5 0 0 1 .692.723l-11.5 11A.5.5 0 0 1 12 18z"/><linearGradient id="SVGID_1_" gradientUnits="userSpaceOnUse" x1="1.0210401" y1="4.1994276" x2="20.8196163" y2="13.4316549"><stop offset="0" stop-color="#FFF" stop-opacity="0.2"/><stop offset="1" stop-color="#FFF" stop-opacity="0"/></linearGradient><path fill="url(#SVGID_1_)" d="M12 18a.5.5 0 0 1-.346-.138l-11.5-11a.5.5 0 0 1 .692-.723L12 16.809l11.154-10.67a.5.5 0 0 1 .692.723l-11.5 11A.5.5 0 0 1 12 18z"/><metadata><rdf:RDF xmlns:rdf="http://www.w3.org/1999/02/22-rdf-syntax-ns#" xmlns:rdfs="http://www.w3.org/2000/01/rdf-schema#" xmlns:dc="http://purl.org/dc/elements/1.1/"><rdf:Description about="https://iconscout.com/legal#licenses" dc:title="arrow,point,direction,move,navigation" dc:description="arrow,point,direction,move,navigation" dc:publisher="Iconscout" dc:date="2017-08-16" dc:format="image/svg+xml" dc:language="en"><dc:creator><rdf:Bag><rdf:li>Those Icons</rdf:li></rdf:Bag></dc:creator></rdf:Description></rdf:RDF></metadata></svg>