<svg id="SvgjsSvg1001" width="288" height="288" xmlns="http://www.w3.org/2000/svg" version="1.1" xmlns:xlink="http://www.w3.org/1999/xlink" xmlns:svgjs="http://svgjs.com/svgjs"><defs id="SvgjsDefs1002"></defs><g id="SvgjsG1008" transform="matrix(0.9167,0,0,0.9167,11.994969303131114,11.992898274421691)"><svg xmlns="http://www.w3.org/2000/svg" width="288" height="288" viewBox="0 0 32 32"><path d="M 2.34375 2 A 0.50004998 0.50004998 0 0 0 2 2.5 L 2 29.5 A 0.50004998 0.50004998 0 0 0 2.5 30 L 29.5 30 A 0.50004998 0.50004998 0 0 0 30 29.5 L 30 8.96875 L 30 2.5 A 0.50004998 0.50004998 0 0 0 29.5 2 L 2.5 2 A 0.50004998 0.50004998 0 0 0 2.34375 2 z M 3 3 L 29 3 L 29 6 L 3 6 L 3 3 z M 4.5 4 C 4.22386 4 4 4.2239 4 4.5 C 4 4.7761 4.22386 5 4.5 5 C 4.77614 5 5 4.7761 5 4.5 C 5 4.2239 4.77614 4 4.5 4 z M 6.5 4 C 6.22386 4 6 4.2238 6 4.5 C 6 4.7761 6.22386 5 6.5 5 C 6.77614 5 7 4.7761 7 4.5 C 7 4.2238 6.77614 4 6.5 4 z M 8.5 4 C 8.22384 4 8 4.2238 8 4.5 C 8 4.7761 8.22384 5 8.5 5 C 8.77616 5 9 4.7761 9 4.5 C 9 4.2238 8.77616 4 8.5 4 z M 3 7 L 29 7 L 29 8.96875 L 29 29 L 3 29 L 3 7 z M 16 11 C 12.13984 11 9 14.1396 9 18 C 9 21.8604 12.13986 25 16 25 C 19.86007 25 23 21.8604 23 18 C 23 14.1396 19.86009 11 16 11 z M 15.5 12.09375 L 15.5 14.25 L 13.5 14.25 C 13.672719 13.644779 13.882262 13.025973 14.125 12.40625 C 14.566034 12.259539 15.014495 12.135546 15.5 12.09375 z M 16.5 12.09375 C 16.961222 12.133456 17.391175 12.240362 17.8125 12.375 C 18.059849 13.004165 18.262224 13.63582 18.4375 14.25 L 16.5 14.25 L 16.5 12.09375 z M 12.875 12.96875 C 12.728529 13.398668 12.582288 13.822116 12.46875 14.25 L 11.40625 14.25 C 11.827274 13.733861 12.313218 13.314976 12.875 12.96875 z M 19.09375 12.96875 C 19.664686 13.317063 20.167136 13.727002 20.59375 14.25 L 19.5 14.25 C 19.386462 13.822116 19.240221 13.398668 19.09375 12.96875 z M 10.75 15.25 L 12.25 15.25 C 12.097234 16.001983 12.008601 16.746759 11.96875 17.5 L 10.09375 17.5 C 10.16375 16.6866 10.38915 15.9374 10.75 15.25 z M 13.25 15.25 L 15.5 15.25 L 15.5 17.5 L 12.9375 17.5 C 12.980503 16.754056 13.084846 16.00132 13.25 15.25 z M 16.5 15.25 L 18.6875 15.25 C 18.852654 16.00132 18.956997 16.754056 19 17.5 L 16.5 17.5 L 16.5 15.25 z M 19.71875 15.25 L 21.25 15.25 C 21.61085 15.9374 21.83623 16.6866 21.90625 17.5 L 20 17.5 C 19.960149 16.746759 19.871516 16.001983 19.71875 15.25 z M 10.09375 18.5 L 11.9375 18.5 C 11.949738 19.24082 12.023404 19.999501 12.15625 20.75 L 10.75 20.75 C 10.38314 20.0586 10.16526 19.3201 10.09375 18.5 z M 12.90625 18.5 L 15.5 18.5 L 15.5 20.75 L 13.15625 20.75 C 13.006462 19.988696 12.920473 19.247982 12.90625 18.5 z M 16.5 18.5 L 19.03125 18.5 C 19.017026 19.247982 18.931038 19.988696 18.78125 20.75 L 16.5 20.75 L 16.5 18.5 z M 20.03125 18.5 L 21.90625 18.5 C 21.83475 19.3201 21.61686 20.0586 21.25 20.75 L 19.8125 20.75 C 19.945347 19.999501 20.019011 19.24082 20.03125 18.5 z M 11.4375 21.75 L 12.375 21.75 C 12.474043 22.146459 12.583846 22.536461 12.71875 22.9375 C 12.236737 22.611164 11.810749 22.200862 11.4375 21.75 z M 13.40625 21.75 L 15.5 21.75 L 15.5 23.90625 C 14.9846 23.861906 14.495623 23.760434 14.03125 23.59375 C 13.771922 22.965864 13.573424 22.35884 13.40625 21.75 z M 16.5 21.75 L 18.53125 21.75 C 18.361606 22.367832 18.170824 22.987507 17.90625 23.625 C 17.46103 23.778825 16.991336 23.863976 16.5 23.90625 L 16.5 21.75 z M 19.59375 21.75 L 20.5625 21.75 C 20.189255 22.200862 19.763268 22.611164 19.28125 22.9375 C 19.414792 22.539693 19.495495 22.143303 19.59375 21.75 z " color="#000" enable-background="accumulate" font-family="Sans" font-weight="400" overflow="visible" style="text-indent:0;text-align:start;line-height:normal;text-transform:none;block-progression:tb;marker:none;-inkscape-font-specification:Sans" fill="#05386B" class="color000 svgShape"></path></svg></g></svg>