<svg width="56" height="69" viewBox="0 0 56 69" fill="none" xmlns="http://www.w3.org/2000/svg">
<path d="M28 12L29.697 10.3029C28.7597 9.3657 27.2403 9.3657 26.303 10.3029L28 12ZM28 37.6L26.303 39.297C27.2403 40.2342 28.7597 40.2342 29.697 39.297L28 37.6ZM19.9029 16.7029C18.9657 17.6402 18.9657 19.1598 19.9029 20.0971C20.8402 21.0343 22.3597 21.0343 23.297 20.0971L19.9029 16.7029ZM32.703 20.0971C33.6403 21.0343 35.1597 21.0343 36.097 20.0971C37.0342 19.1598 37.0342 17.6402 36.097 16.7029L32.703 20.0971ZM23.297 29.503C22.3597 28.5658 20.8402 28.5658 19.9029 29.503C18.9657 30.4403 18.9657 31.9597 19.9029 32.897L23.297 29.503ZM36.097 32.897C37.0342 31.9597 37.0342 30.4403 36.097 29.503C35.1597 28.5658 33.6403 28.5658 32.703 29.503L36.097 32.897ZM0 28V40.8H4.8V28H0ZM56 40.8V28H51.2V40.8H56ZM25.6 12V37.6H30.4V12H25.6ZM26.303 10.3029L19.9029 16.7029L23.297 20.0971L29.697 13.6971L26.303 10.3029ZM26.303 13.6971L32.703 20.0971L36.097 16.7029L29.697 10.3029L26.303 13.6971ZM29.697 35.903L23.297 29.503L19.9029 32.897L26.303 39.297L29.697 35.903ZM29.697 39.297L36.097 32.897L32.703 29.503L26.303 35.903L29.697 39.297ZM56 28C56 12.536 43.464 0 28 0V4.8C40.8131 4.8 51.2 15.187 51.2 28H56ZM28 68.8C43.464 68.8 56 56.264 56 40.8H51.2C51.2 53.6131 40.8131 64 28 64V68.8ZM0 40.8C0 56.264 12.536 68.8 28 68.8V64C15.187 64 4.8 53.6131 4.8 40.8H0ZM4.8 28C4.8 15.187 15.187 4.8 28 4.8V0C12.536 0 0 12.536 0 28H4.8Z" fill="#222831"/>
</svg>
